<svg aria-hidden="true" style="position: absolute; width: 0; height: 0; overflow: hidden;" version="1.1" xmlns="http://www.w3.org/2000/svg" xmlns:xlink="http://www.w3.org/1999/xlink">
<defs>
<symbol id="icon-untitled" viewBox="0 0 48 32">
<path d="M41.648 18.935c-0.261-1.955-0.429-3.7-0.506-5.235-0.033-1.56 0.026-2.91 0.178-4.050l-37.94 21.905-1.795-3.109 37.94-21.905c-1.092-0.488-2.305-1.137-3.639-1.945-1.291-0.834-2.704-1.827-4.238-2.981l2.278-1.315c4.813 2.024 9.215 3.036 13.206 3.035l0.769 1.332c-2.025 3.406-3.35 7.724-3.975 12.954l-2.278 1.315z"></path>
</symbol>
<symbol id="icon-g8" viewBox="0 0 21 32">
<path  d="M20.183 31.964h-1.124v-1.142h1.124v1.142z"></path>
<path  d="M21.307 31.964h-1.124v-1.142h1.124v1.142z"></path>
<path  d="M15.688 31.964h-1.124v-1.142h1.124v1.142z"></path>
<path  d="M14.564 31.964h-1.124v-1.142h1.124v1.142z"></path>
<path  d="M13.44 31.964h-1.124v-1.142h1.124v1.142z"></path>
<path  d="M6.697 31.964h-1.124v-1.142h1.124v1.142z"></path>
<path  d="M21.307 30.823h-1.124v-1.142h1.124v1.142z"></path>
<path  d="M16.812 30.823h-1.124v-1.142h1.124v1.142z"></path>
<path  d="M15.688 30.823h-1.124v-1.142h1.124v1.142z"></path>
<path  d="M14.564 30.823h-1.124v-1.142h1.124v1.142z"></path>
<path  d="M6.697 30.823h-1.124v-1.142h1.124v1.142z"></path>
<path  d="M5.573 30.823h-1.124v-1.142h1.124v1.142z"></path>
<path  d="M1.078 30.823h-1.124v-1.142h1.124v1.142z"></path>
<path  d="M17.936 29.681h-1.124v-1.142h1.124v1.142z"></path>
<path  d="M16.812 29.681h-1.124v-1.142h1.124v1.142z"></path>
<path  d="M15.688 29.681h-1.124v-1.142h1.124v1.142z"></path>
<path  d="M6.697 29.681h-1.124v-1.142h1.124v1.142z"></path>
<path  d="M5.573 29.681h-1.124v-1.142h1.124v1.142z"></path>
<path  d="M4.449 29.681h-1.124v-1.142h1.124v1.142z"></path>
<path  d="M2.202 29.681h-1.124v-1.142h1.124v1.142z"></path>
<path  d="M1.078 29.681h-1.124v-1.142h1.124v1.142z"></path>
<path  d="M19.059 28.54h-1.124v-1.142h1.124v1.142z"></path>
<path  d="M17.936 28.54h-1.124v-1.142h1.124v1.142z"></path>
<path  d="M16.812 28.54h-1.124v-1.142h1.124v1.142z"></path>
<path  d="M11.193 28.54h-1.124v-1.142h1.124v1.142z"></path>
<path  d="M10.069 28.54h-1.124v-1.142h1.124v1.142z"></path>
<path  d="M8.945 28.54h-1.124v-1.142h1.124v1.142z"></path>
<path  d="M5.573 28.54h-1.124v-1.142h1.124v1.142z"></path>
<path  d="M4.449 28.54h-1.124v-1.142h1.124v1.142z"></path>
<path  d="M2.202 28.54h-1.124v-1.142h1.124v1.142z"></path>
<path  d="M1.078 28.54h-1.124v-1.142h1.124v1.142z"></path>
<path  d="M20.183 27.398h-1.124v-1.142h1.124v1.142z"></path>
<path  d="M19.059 27.398h-1.124v-1.142h1.124v1.142z"></path>
<path  d="M17.936 27.398h-1.124v-1.142h1.124v1.142z"></path>
<path  d="M10.069 27.398h-1.124v-1.142h1.124v1.142z"></path>
<path  d="M8.945 27.398h-1.124v-1.142h1.124v1.142z"></path>
<path  d="M7.821 27.398h-1.124v-1.142h1.124v1.142z"></path>
<path  d="M4.449 27.398h-1.124v-1.142h1.124v1.142z"></path>
<path  d="M2.202 27.398h-1.124v-1.142h1.124v1.142z"></path>
<path  d="M20.183 26.256h-1.124v-1.142h1.124v1.142z"></path>
<path  d="M19.059 26.256h-1.124v-1.142h1.124v1.142z"></path>
<path  d="M8.945 26.256h-1.124v-1.142h1.124v1.142z"></path>
<path  d="M7.821 26.256h-1.124v-1.142h1.124v1.142z"></path>
<path  d="M6.697 26.256h-1.124v-1.142h1.124v1.142z"></path>
<path  d="M20.183 25.115h-1.124v-1.142h1.124v1.142z"></path>
<path  d="M14.564 25.115h-1.124v-1.142h1.124v1.142z"></path>
<path  d="M4.449 25.115h-1.124v-1.142h1.124v1.142z"></path>
<path  d="M2.202 25.115h-1.124v-1.142h1.124v1.142z"></path>
<path  d="M14.564 23.973h-1.124v-1.142h1.124v1.142z"></path>
<path  d="M13.44 23.973h-1.124v-1.142h1.124v1.142z"></path>
<path  d="M5.573 23.973h-1.124v-1.142h1.124v1.142z"></path>
<path  d="M4.449 23.973h-1.124v-1.142h1.124v1.142z"></path>
<path  d="M2.202 23.973h-1.124v-1.142h1.124v1.142z"></path>
<path  d="M1.078 23.973h-1.124v-1.142h1.124v1.142z"></path>
<path  d="M14.564 22.832h-1.124v-1.142h1.124v1.142z"></path>
<path  d="M13.44 22.832h-1.124v-1.142h1.124v1.142z"></path>
<path  d="M12.316 22.832h-1.124v-1.142h1.124v1.142z"></path>
<path  d="M6.697 22.832h-1.124v-1.142h1.124v1.142z"></path>
<path  d="M5.573 22.832h-1.124v-1.142h1.124v1.142z"></path>
<path  d="M1.078 22.832h-1.124v-1.142h1.124v1.142z"></path>
<path  d="M13.44 21.69h-1.124v-1.142h1.124v1.142z"></path>
<path  d="M12.316 21.69h-1.124v-1.142h1.124v1.142z"></path>
<path  d="M7.821 21.69h-1.124v-1.142h1.124v1.142z"></path>
<path  d="M6.697 21.69h-1.124v-1.142h1.124v1.142z"></path>
<path  d="M17.936 20.549h-1.124v-1.142h1.124v1.142z"></path>
<path  d="M16.812 20.549h-1.124v-1.142h1.124v1.142z"></path>
<path  d="M15.688 20.549h-1.124v-1.142h1.124v1.142z"></path>
<path  d="M12.316 20.549h-1.124v-1.142h1.124v1.142z"></path>
<path  d="M8.945 20.549h-1.124v-1.142h1.124v1.142z"></path>
<path  d="M7.821 20.549h-1.124v-1.142h1.124v1.142z"></path>
<path  d="M21.307 19.407h-1.124v-1.142h1.124v1.142z"></path>
<path  d="M16.812 19.407h-1.124v-1.142h1.124v1.142z"></path>
<path  d="M15.688 19.407h-1.124v-1.142h1.124v1.142z"></path>
<path  d="M14.564 19.407h-1.124v-1.142h1.124v1.142z"></path>
<path  d="M10.069 19.407h-1.124v-1.142h1.124v1.142z"></path>
<path  d="M8.945 19.407h-1.124v-1.142h1.124v1.142z"></path>
<path d="M21.307 18.265h-1.124v-1.142h1.124v1.142z"></path>
<path  d="M20.183 18.265h-1.124v-1.142h1.124v1.142z"></path>
<path  d="M15.688 18.265h-1.124v-1.142h1.124v1.142z"></path>
<path  d="M14.564 18.265h-1.124v-1.142h1.124v1.142z"></path>
<path  d="M13.44 18.265h-1.124v-1.142h1.124v1.142z"></path>
<path  d="M11.193 18.265h-1.124v-1.142h1.124v1.142z"></path>
<path  d="M10.069 18.265h-1.124v-1.142h1.124v1.142z"></path>
<path  d="M3.326 18.265h-1.124v-1.142h1.124v1.142z"></path>
<path  d="M21.307 17.124h-1.124v-1.142h1.124v1.142z"></path>
<path d="M20.183 17.124h-1.124v-1.142h1.124v1.142z"></path>
<path  d="M19.059 17.124h-1.124v-1.142h1.124v1.142z"></path>
<path  d="M4.449 17.124h-1.124v-1.142h1.124v1.142z"></path>
<path  d="M3.326 17.124h-1.124v-1.142h1.124v1.142z"></path>
<path  d="M2.202 17.124h-1.124v-1.142h1.124v1.142z"></path>
<path  d="M21.307 15.982h-1.124v-1.142h1.124v1.142z"></path>
<path  d="M20.183 15.982h-1.124v-1.142h1.124v1.142z"></path>
<path  d="M15.688 15.982h-1.124v-1.142h1.124v1.142z"></path>
<path  d="M14.564 15.982h-1.124v-1.142h1.124v1.142z"></path>
<path  d="M13.44 15.982h-1.124v-1.142h1.124v1.142z"></path>
<path  d="M11.193 15.982h-1.124v-1.142h1.124v1.142z"></path>
<path  d="M10.069 15.982h-1.124v-1.142h1.124v1.142z"></path>
<path  d="M3.326 15.982h-1.124v-1.142h1.124v1.142z"></path>
<path  d="M21.307 14.841h-1.124v-1.142h1.124v1.142z"></path>
<path  d="M16.812 14.841h-1.124v-1.142h1.124v1.142z"></path>
<path  d="M15.688 14.841h-1.124v-1.142h1.124v1.142z"></path>
<path  d="M14.564 14.841h-1.124v-1.142h1.124v1.142z"></path>
<path  d="M10.069 14.841h-1.124v-1.142h1.124v1.142z"></path>
<path  d="M8.945 14.841h-1.124v-1.142h1.124v1.142z"></path>
<path  d="M17.936 13.699h-1.124v-1.142h1.124v1.142z"></path>
<path  d="M16.812 13.699h-1.124v-1.142h1.124v1.142z"></path>
<path  d="M15.688 13.699h-1.124v-1.142h1.124v1.142z"></path>
<path  d="M12.316 13.699h-1.124v-1.142h1.124v1.142z"></path>
<path  d="M8.945 13.699h-1.124v-1.142h1.124v1.142z"></path>
<path  d="M7.821 13.699h-1.124v-1.142h1.124v1.142z"></path>
<path  d="M13.44 12.557h-1.124v-1.142h1.124v1.142z"></path>
<path  d="M12.316 12.557h-1.124v-1.142h1.124v1.142z"></path>
<path  d="M7.821 12.557h-1.124v-1.142h1.124v1.142z"></path>
<path  d="M6.697 12.557h-1.124v-1.142h1.124v1.142z"></path>
<path  d="M14.564 11.416h-1.124v-1.142h1.124v1.142z"></path>
<path  d="M13.44 11.416h-1.124v-1.142h1.124v1.142z"></path>
<path  d="M12.316 11.416h-1.124v-1.142h1.124v1.142z"></path>
<path  d="M6.697 11.416h-1.124v-1.142h1.124v1.142z"></path>
<path  d="M5.573 11.416h-1.124v-1.142h1.124v1.142z"></path>
<path  d="M1.078 11.416h-1.124v-1.142h1.124v1.142z"></path>
<path  d="M14.564 10.274h-1.124v-1.142h1.124v1.142z"></path>
<path  d="M13.44 10.274h-1.124v-1.142h1.124v1.142z"></path>
<path  d="M5.573 10.274h-1.124v-1.142h1.124v1.142z"></path>
<path  d="M4.449 10.274h-1.124v-1.142h1.124v1.142z"></path>
<path  d="M2.202 10.274h-1.124v-1.142h1.124v1.142z"></path>
<path  d="M1.078 10.274h-1.124v-1.142h1.124v1.142z"></path>
<path  d="M14.564 9.133h-1.124v-1.142h1.124v1.142z"></path>
<path  d="M4.449 9.133h-1.124v-1.142h1.124v1.142z"></path>
<path  d="M2.202 9.133h-1.124v-1.142h1.124v1.142z"></path>
<path  d="M20.183 7.991h-1.124v-1.142h1.124v1.142z"></path>
<path  d="M20.183 6.85h-1.124v-1.142h1.124v1.142z"></path>
<path  d="M19.059 6.85h-1.124v-1.142h1.124v1.142z"></path>
<path  d="M8.945 6.85h-1.124v-1.142h1.124v1.142z"></path>
<path  d="M7.821 6.85h-1.124v-1.142h1.124v1.142z"></path>
<path  d="M6.697 6.85h-1.124v-1.142h1.124v1.142z"></path>
<path  d="M20.183 5.708h-1.124v-1.142h1.124v1.142z"></path>
<path  d="M19.059 5.708h-1.124v-1.142h1.124v1.142z"></path>
<path  d="M17.936 5.708h-1.124v-1.142h1.124v1.142z"></path>
<path  d="M10.069 5.708h-1.124v-1.142h1.124v1.142z"></path>
<path  d="M8.945 5.708h-1.124v-1.142h1.124v1.142z"></path>
<path  d="M7.821 5.708h-1.124v-1.142h1.124v1.142z"></path>
<path  d="M4.449 5.708h-1.124v-1.142h1.124v1.142z"></path>
<path  d="M2.202 5.708h-1.124v-1.142h1.124v1.142z"></path>
<path  d="M19.059 4.566h-1.124v-1.142h1.124v1.142z"></path>
<path  d="M17.936 4.566h-1.124v-1.142h1.124v1.142z"></path>
<path  d="M16.812 4.566h-1.124v-1.142h1.124v1.142z"></path>
<path  d="M11.193 4.566h-1.124v-1.142h1.124v1.142z"></path>
<path  d="M10.069 4.566h-1.124v-1.142h1.124v1.142z"></path>
<path  d="M8.945 4.566h-1.124v-1.142h1.124v1.142z"></path>
<path  d="M5.573 4.566h-1.124v-1.142h1.124v1.142z"></path>
<path  d="M4.449 4.566h-1.124v-1.142h1.124v1.142z"></path>
<path  d="M2.202 4.566h-1.124v-1.142h1.124v1.142z"></path>
<path  d="M1.078 4.566h-1.124v-1.142h1.124v1.142z"></path>
<path  d="M17.936 3.425h-1.124v-1.142h1.124v1.142z"></path>
<path  d="M16.812 3.425h-1.124v-1.142h1.124v1.142z"></path>
<path  d="M15.688 3.425h-1.124v-1.142h1.124v1.142z"></path>
<path  d="M6.697 3.425h-1.124v-1.142h1.124v1.142z"></path>
<path  d="M5.573 3.425h-1.124v-1.142h1.124v1.142z"></path>
<path  d="M4.449 3.425h-1.124v-1.142h1.124v1.142z"></path>
<path  d="M2.202 3.425h-1.124v-1.142h1.124v1.142z"></path>
<path  d="M1.078 3.425h-1.124v-1.142h1.124v1.142z"></path>
<path  d="M21.307 2.283h-1.124v-1.142h1.124v1.142z"></path>
<path  d="M16.812 2.283h-1.124v-1.142h1.124v1.142z"></path>
<path  d="M15.688 2.283h-1.124v-1.142h1.124v1.142z"></path>
<path  d="M14.564 2.283h-1.124v-1.142h1.124v1.142z"></path>
<path  d="M6.697 2.283h-1.124v-1.142h1.124v1.142z"></path>
<path  d="M5.573 2.283h-1.124v-1.142h1.124v1.142z"></path>
<path  d="M1.078 2.283h-1.124v-1.142h1.124v1.142z"></path>
<path  d="M21.307 1.142h-1.124v-1.142h1.124v1.142z"></path>
<path  d="M20.183 1.142h-1.124v-1.142h1.124v1.142z"></path>
<path  d="M15.688 1.142h-1.124v-1.142h1.124v1.142z"></path>
<path  d="M14.564 1.142h-1.124v-1.142h1.124v1.142z"></path>
<path  d="M13.44 1.142h-1.124v-1.142h1.124v1.142z"></path>
<path  d="M6.697 1.142h-1.124v-1.142h1.124v1.142z"></path>
</symbol>
</defs>
</svg>
