<svg aria-hidden="true" style="position: absolute; width: 0; height: 0; overflow: hidden;" version="1.1" xmlns="http://www.w3.org/2000/svg" xmlns:xlink="http://www.w3.org/1999/xlink">
<defs>
<symbol id="icon-facebook" viewBox="0 0 32 32">
<path d="M19.52 4.64c0.24 0 0.48 0 0.96 0v3.6c-0.24 0-0.72 0-1.2 0s-0.96 0-1.2 0.24c-0.24 0.24-0.24 0.48-0.24 1.040 0 0.48 0 0.8 0 1.28h2.64v3.040h-2.64v13.2h-4.080v-13.28h-2.16v-3.040h2.16v-1.040c0-1.76 0.24-3.040 0.72-3.6 0.72-1.040 2.16-1.52 4.32-1.52 0.24 0.080 0.48 0.080 0.72 0.080z"></path>
</symbol>
<symbol id="icon-youtube" viewBox="0 0 32 32">
<path opacity="0.8" d="M24.24 6c-1.36-0.080-4.16-0.16-8.4-0.16h-0.56c-4.080 0-6.8 0.080-8.16 0.24-1.84 0.16-3.12 0.64-3.84 1.28-0.64 0.56-1.12 1.6-1.28 2.96-0.080 0.88-0.16 2.72-0.16 5.52v0.4c0 2.64 0.080 4.48 0.24 5.36 0.24 1.28 0.64 2.24 1.44 2.8 0.8 0.64 2.16 1.040 4.080 1.2 1.36 0.080 4.16 0.16 8.4 0.16h0.56c4.080 0 6.8-0.080 8.16-0.24 1.84-0.16 3.12-0.64 3.84-1.28 0.64-0.56 1.12-1.6 1.28-2.96 0.080-0.88 0.16-2.72 0.16-5.52v-0.4c0-2.64-0.080-4.48-0.24-5.36-0.24-1.28-0.64-2.24-1.44-2.8-0.8-0.64-2.16-1.040-4.080-1.2zM21.12 15.84l-8.8 5.28v-10.56l8.8 5.28z"></path>
</symbol>
<symbol id="icon-instagram" viewBox="0 0 32 32">
<path opacity="0.8" d="M28.717 10.756c-0.016-1.074-0.215-2.14-0.596-3.145-0.667-1.716-2.024-3.073-3.743-3.737-0.994-0.373-2.044-0.573-3.108-0.596-1.368-0.061-1.801-0.078-5.273-0.078s-3.917 0-5.274 0.078c-1.062 0.023-2.112 0.223-3.106 0.596-1.719 0.664-3.078 2.021-3.743 3.737-0.374 0.992-0.576 2.041-0.596 3.101-0.061 1.367-0.080 1.8-0.080 5.265s0 3.909 0.080 5.265c0.021 1.062 0.222 2.109 0.596 3.104 0.667 1.714 2.024 3.071 3.744 3.735 0.989 0.386 2.040 0.605 3.106 0.639 1.369 0.061 1.803 0.080 5.274 0.080s3.916 0 5.274-0.080c1.062-0.021 2.113-0.221 3.108-0.595 1.719-0.666 3.076-2.022 3.743-3.737 0.374-0.994 0.574-2.041 0.596-3.104 0.061-1.365 0.080-1.798 0.080-5.265-0.003-3.466-0.003-3.906-0.082-5.264zM15.99 22.531c-3.631 0-6.572-2.936-6.572-6.561s2.941-6.561 6.572-6.561c3.628 0 6.572 2.936 6.572 6.561s-2.944 6.561-6.572 6.561zM22.823 10.696c-0.849 0-1.532-0.684-1.532-1.53s0.684-1.53 1.532-1.53c0.846 0 1.531 0.684 1.531 1.53s-0.685 1.53-1.531 1.53z"></path>
<path opacity="0.8" d="M15.992 19.976c2.211 0 4.004-1.793 4.004-4.004s-1.793-4.004-4.004-4.004c-2.211 0-4.004 1.793-4.004 4.004s1.793 4.004 4.004 4.004z"></path>
</symbol>
<symbol id="icon-logo" viewBox="0 0 36 32">
<path fill="#ecd979" style="fill: var(--color1, #ecd979)" d="M15.786 11.416h-1.126v-1.142h1.126v1.142z"></path>
<path fill="#ecd979" style="fill: var(--color1, #ecd979)" d="M14.66 11.416h-1.126v-1.142h1.126v1.142z"></path>
<path fill="#ecd979" style="fill: var(--color1, #ecd979)" d="M9.030 11.416h-1.126v-1.142h1.126v1.142z"></path>
<path fill="#ecd979" style="fill: var(--color1, #ecd979)" d="M7.904 11.416h-1.126v-1.142h1.126v1.142z"></path>
<path fill="#ecd979" style="fill: var(--color1, #ecd979)" d="M6.778 11.416h-1.126v-1.142h1.126v1.142z"></path>
<path fill="#ecd979" style="fill: var(--color1, #ecd979)" d="M29.298 10.274h-1.126v-1.142h1.126v1.142z"></path>
<path fill="#ecd979" style="fill: var(--color1, #ecd979)" d="M28.172 10.274h-1.126v-1.142h1.126v1.142z"></path>
<path fill="#ecd979" style="fill: var(--color1, #ecd979)" d="M20.29 10.274h-1.126v-1.142h1.126v1.142z"></path>
<path fill="#ecd979" style="fill: var(--color1, #ecd979)" d="M19.164 10.274h-1.126v-1.142h1.126v1.142z"></path>
<path fill="#ecd979" style="fill: var(--color1, #ecd979)" d="M16.912 10.274h-1.126v-1.142h1.126v1.142z"></path>
<path fill="#ecd979" style="fill: var(--color1, #ecd979)" d="M15.786 10.274h-1.126v-1.142h1.126v1.142z"></path>
<path fill="#ecd979" style="fill: var(--color1, #ecd979)" d="M7.904 10.274h-1.126v-1.142h1.126v1.142z"></path>
<path fill="#ecd979" style="fill: var(--color1, #ecd979)" d="M6.778 10.274h-1.126v-1.142h1.126v1.142z"></path>
<path fill="#ecd979" style="fill: var(--color1, #ecd979)" d="M29.298 9.133h-1.126v-1.142h1.126v1.142z"></path>
<path fill="#ecd979" style="fill: var(--color1, #ecd979)" d="M19.164 9.133h-1.126v-1.142h1.126v1.142z"></path>
<path fill="#ecd979" style="fill: var(--color1, #ecd979)" d="M16.912 9.133h-1.126v-1.142h1.126v1.142z"></path>
<path fill="#ecd979" style="fill: var(--color1, #ecd979)" d="M6.778 9.133h-1.126v-1.142h1.126v1.142z"></path>
<path fill="#ecd979" style="fill: var(--color1, #ecd979)" d="M34.928 7.991h-1.126v-1.142h1.126v1.142z"></path>
<path fill="#ecd979" style="fill: var(--color1, #ecd979)" d="M1.148 7.991h-1.126v-1.142h1.126v1.142z"></path>
<path fill="#ecd979" style="fill: var(--color1, #ecd979)" d="M34.928 6.849h-1.126v-1.142h1.126v1.142z"></path>
<path fill="#ecd979" style="fill: var(--color1, #ecd979)" d="M33.802 6.849h-1.126v-1.142h1.126v1.142z"></path>
<path fill="#ecd979" style="fill: var(--color1, #ecd979)" d="M23.668 6.849h-1.126v-1.142h1.126v1.142z"></path>
<path fill="#ecd979" style="fill: var(--color1, #ecd979)" d="M22.542 6.849h-1.126v-1.142h1.126v1.142z"></path>
<path fill="#ecd979" style="fill: var(--color1, #ecd979)" d="M21.416 6.849h-1.126v-1.142h1.126v1.142z"></path>
<path fill="#ecd979" style="fill: var(--color1, #ecd979)" d="M14.66 6.849h-1.126v-1.142h1.126v1.142z"></path>
<path fill="#ecd979" style="fill: var(--color1, #ecd979)" d="M13.534 6.849h-1.126v-1.142h1.126v1.142z"></path>
<path fill="#ecd979" style="fill: var(--color1, #ecd979)" d="M12.408 6.849h-1.126v-1.142h1.126v1.142z"></path>
<path fill="#ecd979" style="fill: var(--color1, #ecd979)" d="M2.274 6.849h-1.126v-1.142h1.126v1.142z"></path>
<path fill="#ecd979" style="fill: var(--color1, #ecd979)" d="M1.148 6.849h-1.126v-1.142h1.126v1.142z"></path>
<path fill="#ecd979" style="fill: var(--color1, #ecd979)" d="M34.928 5.708h-1.126v-1.142h1.126v1.142z"></path>
<path fill="#ecd979" style="fill: var(--color1, #ecd979)" d="M33.802 5.708h-1.126v-1.142h1.126v1.142z"></path>
<path fill="#ecd979" style="fill: var(--color1, #ecd979)" d="M32.676 5.708h-1.126v-1.142h1.126v1.142z"></path>
<path fill="#ecd979" style="fill: var(--color1, #ecd979)" d="M24.794 5.708h-1.126v-1.142h1.126v1.142z"></path>
<path fill="#ecd979" style="fill: var(--color1, #ecd979)" d="M23.668 5.708h-1.126v-1.142h1.126v1.142z"></path>
<path fill="#ecd979" style="fill: var(--color1, #ecd979)" d="M22.542 5.708h-1.126v-1.142h1.126v1.142z"></path>
<path fill="#ecd979" style="fill: var(--color1, #ecd979)" d="M19.164 5.708h-1.126v-1.142h1.126v1.142z"></path>
<path fill="#ecd979" style="fill: var(--color1, #ecd979)" d="M16.912 5.708h-1.126v-1.142h1.126v1.142z"></path>
<path fill="#ecd979" style="fill: var(--color1, #ecd979)" d="M13.534 5.708h-1.126v-1.142h1.126v1.142z"></path>
<path fill="#ecd979" style="fill: var(--color1, #ecd979)" d="M12.408 5.708h-1.126v-1.142h1.126v1.142z"></path>
<path fill="#ecd979" style="fill: var(--color1, #ecd979)" d="M11.282 5.708h-1.126v-1.142h1.126v1.142z"></path>
<path fill="#ecd979" style="fill: var(--color1, #ecd979)" d="M3.4 5.708h-1.126v-1.142h1.126v1.142z"></path>
<path fill="#ecd979" style="fill: var(--color1, #ecd979)" d="M2.274 5.708h-1.126v-1.142h1.126v1.142z"></path>
<path fill="#ecd979" style="fill: var(--color1, #ecd979)" d="M1.148 5.708h-1.126v-1.142h1.126v1.142z"></path>
<path fill="#ecd979" style="fill: var(--color1, #ecd979)" d="M33.802 4.566h-1.126v-1.142h1.126v1.142z"></path>
<path fill="#ecd979" style="fill: var(--color1, #ecd979)" d="M32.676 4.566h-1.126v-1.142h1.126v1.142z"></path>
<path fill="#ecd979" style="fill: var(--color1, #ecd979)" d="M31.55 4.566h-1.126v-1.142h1.126v1.142z"></path>
<path fill="#ecd979" style="fill: var(--color1, #ecd979)" d="M25.92 4.566h-1.126v-1.142h1.126v1.142z"></path>
<path fill="#ecd979" style="fill: var(--color1, #ecd979)" d="M24.794 4.566h-1.126v-1.142h1.126v1.142z"></path>
<path fill="#ecd979" style="fill: var(--color1, #ecd979)" d="M23.668 4.566h-1.126v-1.142h1.126v1.142z"></path>
<path fill="#ecd979" style="fill: var(--color1, #ecd979)" d="M20.29 4.566h-1.126v-1.142h1.126v1.142z"></path>
<path fill="#ecd979" style="fill: var(--color1, #ecd979)" d="M19.164 4.566h-1.126v-1.142h1.126v1.142z"></path>
<path fill="#ecd979" style="fill: var(--color1, #ecd979)" d="M16.912 4.566h-1.126v-1.142h1.126v1.142z"></path>
<path fill="#ecd979" style="fill: var(--color1, #ecd979)" d="M15.786 4.566h-1.126v-1.142h1.126v1.142z"></path>
<path fill="#ecd979" style="fill: var(--color1, #ecd979)" d="M12.408 4.566h-1.126v-1.142h1.126v1.142z"></path>
<path fill="#ecd979" style="fill: var(--color1, #ecd979)" d="M11.282 4.566h-1.126v-1.142h1.126v1.142z"></path>
<path fill="#ecd979" style="fill: var(--color1, #ecd979)" d="M10.156 4.566h-1.126v-1.142h1.126v1.142z"></path>
<path fill="#ecd979" style="fill: var(--color1, #ecd979)" d="M4.526 4.566h-1.126v-1.142h1.126v1.142z"></path>
<path fill="#ecd979" style="fill: var(--color1, #ecd979)" d="M3.4 4.566h-1.126v-1.142h1.126v1.142z"></path>
<path fill="#ecd979" style="fill: var(--color1, #ecd979)" d="M2.274 4.566h-1.126v-1.142h1.126v1.142z"></path>
<path fill="#ecd979" style="fill: var(--color1, #ecd979)" d="M32.676 3.425h-1.126v-1.142h1.126v1.142z"></path>
<path fill="#ecd979" style="fill: var(--color1, #ecd979)" d="M31.55 3.425h-1.126v-1.142h1.126v1.142z"></path>
<path fill="#ecd979" style="fill: var(--color1, #ecd979)" d="M30.424 3.425h-1.126v-1.142h1.126v1.142z"></path>
<path fill="#ecd979" style="fill: var(--color1, #ecd979)" d="M21.416 3.425h-1.126v-1.142h1.126v1.142z"></path>
<path fill="#ecd979" style="fill: var(--color1, #ecd979)" d="M20.29 3.425h-1.126v-1.142h1.126v1.142z"></path>
<path fill="#ecd979" style="fill: var(--color1, #ecd979)" d="M19.164 3.425h-1.126v-1.142h1.126v1.142z"></path>
<path fill="#ecd979" style="fill: var(--color1, #ecd979)" d="M16.912 3.425h-1.126v-1.142h1.126v1.142z"></path>
<path fill="#ecd979" style="fill: var(--color1, #ecd979)" d="M15.786 3.425h-1.126v-1.142h1.126v1.142z"></path>
<path fill="#ecd979" style="fill: var(--color1, #ecd979)" d="M14.66 3.425h-1.126v-1.142h1.126v1.142z"></path>
<path fill="#ecd979" style="fill: var(--color1, #ecd979)" d="M5.652 3.425h-1.126v-1.142h1.126v1.142z"></path>
<path fill="#ecd979" style="fill: var(--color1, #ecd979)" d="M4.526 3.425h-1.126v-1.142h1.126v1.142z"></path>
<path fill="#ecd979" style="fill: var(--color1, #ecd979)" d="M3.4 3.425h-1.126v-1.142h1.126v1.142z"></path>
<path fill="#ecd979" style="fill: var(--color1, #ecd979)" d="M36.054 2.283h-1.126v-1.142h1.126v1.142z"></path>
<path fill="#ecd979" style="fill: var(--color1, #ecd979)" d="M31.55 2.283h-1.126v-1.142h1.126v1.142z"></path>
<path fill="#ecd979" style="fill: var(--color1, #ecd979)" d="M30.424 2.283h-1.126v-1.142h1.126v1.142z"></path>
<path fill="#ecd979" style="fill: var(--color1, #ecd979)" d="M29.298 2.283h-1.126v-1.142h1.126v1.142z"></path>
<path fill="#ecd979" style="fill: var(--color1, #ecd979)" d="M21.416 2.283h-1.126v-1.142h1.126v1.142z"></path>
<path fill="#ecd979" style="fill: var(--color1, #ecd979)" d="M20.29 2.283h-1.126v-1.142h1.126v1.142z"></path>
<path fill="#ecd979" style="fill: var(--color1, #ecd979)" d="M15.786 2.283h-1.126v-1.142h1.126v1.142z"></path>
<path fill="#ecd979" style="fill: var(--color1, #ecd979)" d="M14.66 2.283h-1.126v-1.142h1.126v1.142z"></path>
<path fill="#ecd979" style="fill: var(--color1, #ecd979)" d="M6.778 2.283h-1.126v-1.142h1.126v1.142z"></path>
<path fill="#ecd979" style="fill: var(--color1, #ecd979)" d="M5.652 2.283h-1.126v-1.142h1.126v1.142z"></path>
<path fill="#ecd979" style="fill: var(--color1, #ecd979)" d="M4.526 2.283h-1.126v-1.142h1.126v1.142z"></path>
<path fill="#ecd979" style="fill: var(--color1, #ecd979)" d="M36.054 1.142h-1.126v-1.142h1.126v1.142z"></path>
<path fill="#ecd979" style="fill: var(--color1, #ecd979)" d="M34.928 1.142h-1.126v-1.142h1.126v1.142z"></path>
<path fill="#ecd979" style="fill: var(--color1, #ecd979)" d="M30.424 1.142h-1.126v-1.142h1.126v1.142z"></path>
<path fill="#ecd979" style="fill: var(--color1, #ecd979)" d="M29.298 1.142h-1.126v-1.142h1.126v1.142z"></path>
<path fill="#ecd979" style="fill: var(--color1, #ecd979)" d="M28.172 1.142h-1.126v-1.142h1.126v1.142z"></path>
<path fill="#ecd979" style="fill: var(--color1, #ecd979)" d="M21.416 1.142h-1.126v-1.142h1.126v1.142z"></path>
<path fill="#ecd979" style="fill: var(--color1, #ecd979)" d="M14.66 1.142h-1.126v-1.142h1.126v1.142z"></path>
<path fill="#ecd979" style="fill: var(--color1, #ecd979)" d="M7.904 1.142h-1.126v-1.142h1.126v1.142z"></path>
<path fill="#ecd979" style="fill: var(--color1, #ecd979)" d="M6.778 1.142h-1.126v-1.142h1.126v1.142z"></path>
<path fill="#ecd979" style="fill: var(--color1, #ecd979)" d="M5.652 1.142h-1.126v-1.142h1.126v1.142z"></path>
<path fill="#ecd979" style="fill: var(--color1, #ecd979)" d="M1.148 1.142h-1.126v-1.142h1.126v1.142z"></path>
</symbol>
<symbol id="icon-burger" viewBox="0 0 48 32">
<path fill="none" stroke="#ecd979" style="stroke: var(--color1, #ecd979)" stroke-linejoin="miter" stroke-linecap="round" stroke-miterlimit="4" stroke-width="2.6667" d="M8.638 5.455h38.029"></path>
<path fill="none" stroke="#ecd979" style="stroke: var(--color1, #ecd979)" stroke-linejoin="miter" stroke-linecap="round" stroke-miterlimit="4" stroke-width="2.6667" d="M8.638 24.849h38.029"></path>
<path fill="none" stroke="#ecd979" style="stroke: var(--color1, #ecd979)" stroke-linejoin="miter" stroke-linecap="round" stroke-miterlimit="4" stroke-width="2.6667" d="M20.116 15.151h26.551"></path>
</symbol>
</defs>
</svg>
