<svg width="274" height="251" viewBox="0 0 274 251" fill="none" xmlns="http://www.w3.org/2000/svg">
<path d="M280.731 258.568H270.127V247.795H280.731V258.568Z" fill="#1C2225" fill-opacity="0.2"/>
<path d="M206.502 258.568H195.897V247.795H206.502V258.568Z" fill="#1C2225" fill-opacity="0.2"/>
<path d="M195.897 258.568H185.293V247.795H195.897V258.568Z" fill="#1C2225" fill-opacity="0.2"/>
<path d="M185.293 258.568H174.688V247.795H185.293V258.568Z" fill="#1C2225" fill-opacity="0.2"/>
<path d="M153.479 258.568H142.875V247.795H153.479V258.568Z" fill="#1C2225" fill-opacity="0.2"/>
<path d="M132.274 258.568H121.67V247.795H132.274V258.568Z" fill="#1C2225" fill-opacity="0.2"/>
<path d="M100.461 258.568H89.8564V247.795H100.461V258.568Z" fill="#1C2225" fill-opacity="0.2"/>
<path d="M89.8562 258.569H79.252V247.795H89.8562V258.569Z" fill="#1C2225" fill-opacity="0.2"/>
<path d="M79.2527 258.568H68.6484V247.795H79.2527V258.568Z" fill="#1C2225" fill-opacity="0.2"/>
<path d="M5.02225 258.568H-5.58203V247.795H5.02225V258.568Z" fill="#1C2225" fill-opacity="0.2"/>
<path d="M195.897 247.795H185.293V237.021H195.897V247.795Z" fill="#1C2225" fill-opacity="0.2"/>
<path d="M185.293 247.795H174.688V237.021H185.293V247.795Z" fill="#1C2225" fill-opacity="0.2"/>
<path d="M174.688 247.795H164.084V237.021H174.688V247.795Z" fill="#1C2225" fill-opacity="0.2"/>
<path d="M111.065 247.795H100.461V237.021H111.065V247.795Z" fill="#1C2225" fill-opacity="0.2"/>
<path d="M100.461 247.795H89.8564V237.021H100.461V247.795Z" fill="#1C2225" fill-opacity="0.2"/>
<path d="M89.8562 247.795H79.252V237.021H89.8562V247.795Z" fill="#1C2225" fill-opacity="0.2"/>
<path d="M248.919 237.021H238.314V226.248H248.919V237.021Z" fill="#1C2225" fill-opacity="0.2"/>
<path d="M153.479 237.021H142.875V226.248H153.479V237.021Z" fill="#1C2225" fill-opacity="0.2"/>
<path d="M132.274 237.021H121.67V226.247H132.274V237.021Z" fill="#1C2225" fill-opacity="0.2"/>
<path d="M36.8348 237.021H26.2305V226.247H36.8348V237.021Z" fill="#1C2225" fill-opacity="0.2"/>
<path d="M248.919 226.247H238.314V215.474H248.919V226.247Z" fill="#1C2225" fill-opacity="0.2"/>
<path d="M238.313 226.247H227.709V215.474H238.313V226.247Z" fill="#1C2225" fill-opacity="0.2"/>
<path d="M164.085 226.247H153.48V215.474H164.085V226.247Z" fill="#1C2225" fill-opacity="0.2"/>
<path d="M153.479 226.247H142.875V215.474H153.479V226.247Z" fill="#1C2225" fill-opacity="0.2"/>
<path d="M132.274 226.247H121.67V215.474H132.274V226.247Z" fill="#1C2225" fill-opacity="0.2"/>
<path d="M121.67 226.247H111.065V215.474H121.67V226.247Z" fill="#1C2225" fill-opacity="0.2"/>
<path d="M47.4392 226.247H36.835V215.474H47.4392V226.247Z" fill="#1C2225" fill-opacity="0.2"/>
<path d="M36.8348 226.247H26.2305V215.474H36.8348V226.247Z" fill="#1C2225" fill-opacity="0.2"/>
<path d="M248.919 215.474H238.314V204.7H248.919V215.474Z" fill="#1C2225" fill-opacity="0.2"/>
<path d="M238.313 215.474H227.709V204.7H238.313V215.474Z" fill="#1C2225" fill-opacity="0.2"/>
<path d="M227.71 215.474H217.105V204.7H227.71V215.474Z" fill="#1C2225" fill-opacity="0.2"/>
<path d="M174.688 215.474H164.084V204.7H174.688V215.474Z" fill="#1C2225" fill-opacity="0.2"/>
<path d="M164.085 215.474H153.48V204.7H164.085V215.474Z" fill="#1C2225" fill-opacity="0.2"/>
<path d="M121.67 215.474H111.065V204.7H121.67V215.474Z" fill="#1C2225" fill-opacity="0.2"/>
<path d="M111.065 215.474H100.461V204.7H111.065V215.474Z" fill="#1C2225" fill-opacity="0.2"/>
<path d="M58.0437 215.474H47.4395V204.7H58.0437V215.474Z" fill="#1C2225" fill-opacity="0.2"/>
<path d="M47.4392 215.474H36.835V204.7H47.4392V215.474Z" fill="#1C2225" fill-opacity="0.2"/>
<path d="M36.8348 215.474H26.2305V204.7H36.8348V215.474Z" fill="#1C2225" fill-opacity="0.2"/>
<path d="M238.313 204.7H227.709V193.927H238.313V204.7Z" fill="#1C2225" fill-opacity="0.2"/>
<path d="M227.71 204.7H217.105V193.927H227.71V204.7Z" fill="#1C2225" fill-opacity="0.2"/>
<path d="M185.293 204.7H174.688V193.927H185.293V204.7Z" fill="#1C2225" fill-opacity="0.2"/>
<path d="M174.688 204.7H164.084V193.927H174.688V204.7Z" fill="#1C2225" fill-opacity="0.2"/>
<path d="M111.065 204.7H100.461V193.926H111.065V204.7Z" fill="#1C2225" fill-opacity="0.2"/>
<path d="M100.461 204.7H89.8564V193.926H100.461V204.7Z" fill="#1C2225" fill-opacity="0.2"/>
<path d="M58.0437 204.7H47.4395V193.926H58.0437V204.7Z" fill="#1C2225" fill-opacity="0.2"/>
<path d="M47.4392 204.7H36.835V193.926H47.4392V204.7Z" fill="#1C2225" fill-opacity="0.2"/>
<path d="M280.731 193.926H270.127V183.153H280.731V193.926Z" fill="#1C2225" fill-opacity="0.2"/>
<path d="M270.127 193.926H259.522V183.153H270.127V193.926Z" fill="#1C2225" fill-opacity="0.2"/>
<path d="M259.523 193.926H248.919V183.153H259.523V193.926Z" fill="#1C2225" fill-opacity="0.2"/>
<path d="M227.71 193.926H217.105V183.153H227.71V193.926Z" fill="#1C2225" fill-opacity="0.2"/>
<path d="M195.897 193.926H185.293V183.153H195.897V193.926Z" fill="#1C2225" fill-opacity="0.2"/>
<path d="M185.293 193.926H174.688V183.153H185.293V193.926Z" fill="#1C2225" fill-opacity="0.2"/>
<path d="M100.461 193.926H89.8564V183.153H100.461V193.926Z" fill="#1C2225" fill-opacity="0.2"/>
<path d="M89.8562 193.926H79.252V183.153H89.8562V193.926Z" fill="#1C2225" fill-opacity="0.2"/>
<path d="M58.0437 193.926H47.4395V183.153H58.0437V193.926Z" fill="#1C2225" fill-opacity="0.2"/>
<path d="M26.2312 193.926H15.627V183.153H26.2312V193.926Z" fill="#1C2225" fill-opacity="0.2"/>
<path d="M15.6267 193.926H5.02246V183.153H15.6267V193.926Z" fill="#1C2225" fill-opacity="0.2"/>
<path d="M5.02225 193.926H-5.58203V183.153H5.02225V193.926Z" fill="#1C2225" fill-opacity="0.2"/>
<path d="M270.127 183.153H259.522V172.379H270.127V183.153Z" fill="#1C2225" fill-opacity="0.2"/>
<path d="M259.523 183.153H248.919V172.379H259.523V183.153Z" fill="#1C2225" fill-opacity="0.2"/>
<path d="M248.919 183.153H238.314V172.379H248.919V183.153Z" fill="#1C2225" fill-opacity="0.2"/>
<path d="M206.502 183.153H195.897V172.379H206.502V183.153Z" fill="#1C2225" fill-opacity="0.2"/>
<path d="M195.897 183.153H185.293V172.379H195.897V183.153Z" fill="#1C2225" fill-opacity="0.2"/>
<path d="M89.8562 183.153H79.252V172.379H89.8562V183.153Z" fill="#1C2225" fill-opacity="0.2"/>
<path d="M79.2527 183.153H68.6484V172.379H79.2527V183.153Z" fill="#1C2225" fill-opacity="0.2"/>
<path d="M36.8348 183.153H26.2305V172.379H36.8348V183.153Z" fill="#1C2225" fill-opacity="0.2"/>
<path d="M26.2312 183.153H15.627V172.379H26.2312V183.153Z" fill="#1C2225" fill-opacity="0.2"/>
<path d="M15.6267 183.153H5.02246V172.379H15.6267V183.153Z" fill="#1C2225" fill-opacity="0.2"/>
<path d="M259.523 172.379H248.919V161.605H259.523V172.379Z" fill="#1C2225" fill-opacity="0.2"/>
<path d="M248.919 172.379H238.314V161.605H248.919V172.379Z" fill="#1C2225" fill-opacity="0.2"/>
<path d="M238.313 172.379H227.709V161.605H238.313V172.379Z" fill="#1C2225" fill-opacity="0.2"/>
<path d="M217.105 172.379H206.501V161.605H217.105V172.379Z" fill="#1C2225" fill-opacity="0.2"/>
<path d="M206.502 172.379H195.897V161.605H206.502V172.379Z" fill="#1C2225" fill-opacity="0.2"/>
<path d="M142.878 172.379H132.273V161.605H142.878V172.379Z" fill="#1C2225" fill-opacity="0.2"/>
<path d="M79.2527 172.379H68.6484V161.605H79.2527V172.379Z" fill="#1C2225" fill-opacity="0.2"/>
<path d="M68.6482 172.379H58.0439V161.605H68.6482V172.379Z" fill="#1C2225" fill-opacity="0.2"/>
<path d="M47.4392 172.379H36.835V161.605H47.4392V172.379Z" fill="#1C2225" fill-opacity="0.2"/>
<path d="M36.8348 172.379H26.2305V161.605H36.8348V172.379Z" fill="#1C2225" fill-opacity="0.2"/>
<path d="M26.2312 172.379H15.627V161.605H26.2312V172.379Z" fill="#1C2225" fill-opacity="0.2"/>
<path d="M153.479 161.605H142.875V150.832H153.479V161.605Z" fill="#1C2225" fill-opacity="0.2"/>
<path d="M142.878 161.605H132.273V150.832H142.878V161.605Z" fill="#1C2225" fill-opacity="0.2"/>
<path d="M132.274 161.605H121.67V150.832H132.274V161.605Z" fill="#1C2225" fill-opacity="0.2"/>
<path d="M259.523 150.832H248.919V140.058H259.523V150.832Z" fill="#1C2225" fill-opacity="0.2"/>
<path d="M248.919 150.832H238.314V140.058H248.919V150.832Z" fill="#1C2225" fill-opacity="0.2"/>
<path d="M238.313 150.832H227.709V140.058H238.313V150.832Z" fill="#1C2225" fill-opacity="0.2"/>
<path d="M217.105 150.832H206.501V140.058H217.105V150.832Z" fill="#1C2225" fill-opacity="0.2"/>
<path d="M206.502 150.832H195.897V140.058H206.502V150.832Z" fill="#1C2225" fill-opacity="0.2"/>
<path d="M142.878 150.832H132.273V140.058H142.878V150.832Z" fill="#1C2225" fill-opacity="0.2"/>
<path d="M79.2527 150.832H68.6484V140.058H79.2527V150.832Z" fill="#1C2225" fill-opacity="0.2"/>
<path d="M68.6482 150.832H58.0439V140.058H68.6482V150.832Z" fill="#1C2225" fill-opacity="0.2"/>
<path d="M47.4392 150.832H36.835V140.058H47.4392V150.832Z" fill="#1C2225" fill-opacity="0.2"/>
<path d="M36.8348 150.832H26.2305V140.058H36.8348V150.832Z" fill="#1C2225" fill-opacity="0.2"/>
<path d="M26.2312 150.832H15.627V140.058H26.2312V150.832Z" fill="#1C2225" fill-opacity="0.2"/>
<path d="M270.127 140.058H259.522V129.284H270.127V140.058Z" fill="#1C2225" fill-opacity="0.2"/>
<path d="M259.523 140.058H248.919V129.284H259.523V140.058Z" fill="#1C2225" fill-opacity="0.2"/>
<path d="M248.919 140.058H238.314V129.284H248.919V140.058Z" fill="#1C2225" fill-opacity="0.2"/>
<path d="M206.502 140.058H195.897V129.284H206.502V140.058Z" fill="#1C2225" fill-opacity="0.2"/>
<path d="M195.897 140.058H185.293V129.284H195.897V140.058Z" fill="#1C2225" fill-opacity="0.2"/>
<path d="M89.8562 140.058H79.252V129.284H89.8562V140.058Z" fill="#1C2225" fill-opacity="0.2"/>
<path d="M79.2527 140.058H68.6484V129.284H79.2527V140.058Z" fill="#1C2225" fill-opacity="0.2"/>
<path d="M36.8348 140.058H26.2305V129.284H36.8348V140.058Z" fill="#1C2225" fill-opacity="0.2"/>
<path d="M26.2312 140.058H15.627V129.284H26.2312V140.058Z" fill="#1C2225" fill-opacity="0.2"/>
<path d="M15.6267 140.058H5.02246V129.284H15.6267V140.058Z" fill="#1C2225" fill-opacity="0.2"/>
<path d="M280.731 129.284H270.127V118.51H280.731V129.284Z" fill="#1C2225" fill-opacity="0.2"/>
<path d="M270.127 129.284H259.522V118.51H270.127V129.284Z" fill="#1C2225" fill-opacity="0.2"/>
<path d="M259.523 129.284H248.919V118.51H259.523V129.284Z" fill="#1C2225" fill-opacity="0.2"/>
<path d="M227.71 129.284H217.105V118.51H227.71V129.284Z" fill="#1C2225" fill-opacity="0.2"/>
<path d="M195.897 129.284H185.293V118.51H195.897V129.284Z" fill="#1C2225" fill-opacity="0.2"/>
<path d="M185.293 129.284H174.688V118.51H185.293V129.284Z" fill="#1C2225" fill-opacity="0.2"/>
<path d="M100.461 129.284H89.8564V118.511H100.461V129.284Z" fill="#1C2225" fill-opacity="0.2"/>
<path d="M89.8562 129.284H79.252V118.51H89.8562V129.284Z" fill="#1C2225" fill-opacity="0.2"/>
<path d="M58.0437 129.284H47.4395V118.511H58.0437V129.284Z" fill="#1C2225" fill-opacity="0.2"/>
<path d="M26.2312 129.284H15.627V118.511H26.2312V129.284Z" fill="#1C2225" fill-opacity="0.2"/>
<path d="M15.6267 129.284H5.02246V118.511H15.6267V129.284Z" fill="#1C2225" fill-opacity="0.2"/>
<path d="M5.02225 129.284H-5.58203V118.511H5.02225V129.284Z" fill="#1C2225" fill-opacity="0.2"/>
<path d="M238.313 118.511H227.709V107.737H238.313V118.511Z" fill="#1C2225" fill-opacity="0.2"/>
<path d="M227.71 118.511H217.105V107.737H227.71V118.511Z" fill="#1C2225" fill-opacity="0.2"/>
<path d="M185.293 118.511H174.688V107.737H185.293V118.511Z" fill="#1C2225" fill-opacity="0.2"/>
<path d="M174.688 118.511H164.084V107.737H174.688V118.511Z" fill="#1C2225" fill-opacity="0.2"/>
<path d="M111.065 118.511H100.461V107.737H111.065V118.511Z" fill="#1C2225" fill-opacity="0.2"/>
<path d="M100.461 118.511H89.8564V107.737H100.461V118.511Z" fill="#1C2225" fill-opacity="0.2"/>
<path d="M58.0437 118.511H47.4395V107.737H58.0437V118.511Z" fill="#1C2225" fill-opacity="0.2"/>
<path d="M47.4392 118.511H36.835V107.737H47.4392V118.511Z" fill="#1C2225" fill-opacity="0.2"/>
<path d="M248.919 107.737H238.314V96.9632H248.919V107.737Z" fill="#1C2225" fill-opacity="0.2"/>
<path d="M238.313 107.737H227.709V96.9632H238.313V107.737Z" fill="#1C2225" fill-opacity="0.2"/>
<path d="M227.71 107.737H217.105V96.9632H227.71V107.737Z" fill="#1C2225" fill-opacity="0.2"/>
<path d="M174.688 107.737H164.084V96.9632H174.688V107.737Z" fill="#1C2225" fill-opacity="0.2"/>
<path d="M164.085 107.737H153.48V96.9632H164.085V107.737Z" fill="#1C2225" fill-opacity="0.2"/>
<path d="M121.67 107.737H111.065V96.9632H121.67V107.737Z" fill="#1C2225" fill-opacity="0.2"/>
<path d="M111.065 107.737H100.461V96.9632H111.065V107.737Z" fill="#1C2225" fill-opacity="0.2"/>
<path d="M58.0437 107.737H47.4395V96.9632H58.0437V107.737Z" fill="#1C2225" fill-opacity="0.2"/>
<path d="M47.4392 107.737H36.835V96.9632H47.4392V107.737Z" fill="#1C2225" fill-opacity="0.2"/>
<path d="M36.8348 107.737H26.2305V96.9632H36.8348V107.737Z" fill="#1C2225" fill-opacity="0.2"/>
<path d="M248.919 96.9631H238.314V86.1894H248.919V96.9631Z" fill="#1C2225" fill-opacity="0.2"/>
<path d="M238.313 96.9631H227.709V86.1894H238.313V96.9631Z" fill="#1C2225" fill-opacity="0.2"/>
<path d="M164.085 96.9631H153.48V86.1894H164.085V96.9631Z" fill="#1C2225" fill-opacity="0.2"/>
<path d="M153.479 96.9631H142.875V86.1894H153.479V96.9631Z" fill="#1C2225" fill-opacity="0.2"/>
<path d="M132.274 96.9631H121.67V86.1894H132.274V96.9631Z" fill="#1C2225" fill-opacity="0.2"/>
<path d="M121.67 96.9631H111.065V86.1894H121.67V96.9631Z" fill="#1C2225" fill-opacity="0.2"/>
<path d="M47.4392 96.9631H36.835V86.1894H47.4392V96.9631Z" fill="#1C2225" fill-opacity="0.2"/>
<path d="M36.8348 96.9631H26.2305V86.1894H36.8348V96.9631Z" fill="#1C2225" fill-opacity="0.2"/>
<path d="M248.919 86.1895H238.314V75.4158H248.919V86.1895Z" fill="#1C2225" fill-opacity="0.2"/>
<path d="M153.479 86.1895H142.875V75.4158H153.479V86.1895Z" fill="#1C2225" fill-opacity="0.2"/>
<path d="M132.274 86.1895H121.67V75.4158H132.274V86.1895Z" fill="#1C2225" fill-opacity="0.2"/>
<path d="M36.8348 86.1895H26.2305V75.4158H36.8348V86.1895Z" fill="#1C2225" fill-opacity="0.2"/>
<path d="M195.897 64.6421H185.293V53.8684H195.897V64.6421Z" fill="#1C2225" fill-opacity="0.2"/>
<path d="M185.293 64.6421H174.688V53.8684H185.293V64.6421Z" fill="#1C2225" fill-opacity="0.2"/>
<path d="M174.688 64.6421H164.084V53.8684H174.688V64.6421Z" fill="#1C2225" fill-opacity="0.2"/>
<path d="M111.065 64.6421H100.461V53.8684H111.065V64.6421Z" fill="#1C2225" fill-opacity="0.2"/>
<path d="M100.461 64.6421H89.8564V53.8684H100.461V64.6421Z" fill="#1C2225" fill-opacity="0.2"/>
<path d="M89.8562 64.6421H79.252V53.8684H89.8562V64.6421Z" fill="#1C2225" fill-opacity="0.2"/>
<path d="M280.731 53.8684H270.127V43.0947H280.731V53.8684Z" fill="#1C2225" fill-opacity="0.2"/>
<path d="M206.502 53.8684H195.897V43.0947H206.502V53.8684Z" fill="#1C2225" fill-opacity="0.2"/>
<path d="M195.897 53.8684H185.293V43.0947H195.897V53.8684Z" fill="#1C2225" fill-opacity="0.2"/>
<path d="M185.293 53.8684H174.688V43.0947H185.293V53.8684Z" fill="#1C2225" fill-opacity="0.2"/>
<path d="M153.479 53.8684H142.875V43.0947H153.479V53.8684Z" fill="#1C2225" fill-opacity="0.2"/>
<path d="M132.274 53.8684H121.67V43.0947H132.274V53.8684Z" fill="#1C2225" fill-opacity="0.2"/>
<path d="M100.461 53.8684H89.8564V43.0947H100.461V53.8684Z" fill="#1C2225" fill-opacity="0.2"/>
<path d="M89.8562 53.8684H79.252V43.0947H89.8562V53.8684Z" fill="#1C2225" fill-opacity="0.2"/>
<path d="M79.2527 53.8684H68.6484V43.0947H79.2527V53.8684Z" fill="#1C2225" fill-opacity="0.2"/>
<path d="M5.02225 53.8684H-5.58203V43.0947H5.02225V53.8684Z" fill="#1C2225" fill-opacity="0.2"/>
<path d="M280.731 43.0947H270.127V32.321H280.731V43.0947Z" fill="#1C2225" fill-opacity="0.2"/>
<path d="M270.127 43.0947H259.522V32.321H270.127V43.0947Z" fill="#1C2225" fill-opacity="0.2"/>
<path d="M217.105 43.0947H206.501V32.321H217.105V43.0947Z" fill="#1C2225" fill-opacity="0.2"/>
<path d="M206.502 43.0947H195.897V32.321H206.502V43.0947Z" fill="#1C2225" fill-opacity="0.2"/>
<path d="M195.897 43.0947H185.293V32.321H195.897V43.0947Z" fill="#1C2225" fill-opacity="0.2"/>
<path d="M164.085 43.0947H153.48V32.321H164.085V43.0947Z" fill="#1C2225" fill-opacity="0.2"/>
<path d="M153.479 43.0947H142.875V32.321H153.479V43.0947Z" fill="#1C2225" fill-opacity="0.2"/>
<path d="M132.274 43.0947H121.67V32.321H132.274V43.0947Z" fill="#1C2225" fill-opacity="0.2"/>
<path d="M121.67 43.0947H111.065V32.321H121.67V43.0947Z" fill="#1C2225" fill-opacity="0.2"/>
<path d="M89.8562 43.0947H79.252V32.321H89.8562V43.0947Z" fill="#1C2225" fill-opacity="0.2"/>
<path d="M79.2527 43.0947H68.6484V32.321H79.2527V43.0947Z" fill="#1C2225" fill-opacity="0.2"/>
<path d="M68.6482 43.0947H58.0439V32.321H68.6482V43.0947Z" fill="#1C2225" fill-opacity="0.2"/>
<path d="M15.6267 43.0947H5.02246V32.321H15.6267V43.0947Z" fill="#1C2225" fill-opacity="0.2"/>
<path d="M5.02225 43.0947H-5.58203V32.321H5.02225V43.0947Z" fill="#1C2225" fill-opacity="0.2"/>
<path d="M280.731 32.3209H270.127V21.5472H280.731V32.3209Z" fill="#1C2225" fill-opacity="0.2"/>
<path d="M270.127 32.3209H259.522V21.5472H270.127V32.3209Z" fill="#1C2225" fill-opacity="0.2"/>
<path d="M259.523 32.3209H248.919V21.5472H259.523V32.3209Z" fill="#1C2225" fill-opacity="0.2"/>
<path d="M174.688 32.3209H164.084V21.5472H174.688V32.3209Z" fill="#1C2225" fill-opacity="0.2"/>
<path d="M164.085 32.3209H153.48V21.5472H164.085V32.3209Z" fill="#1C2225" fill-opacity="0.2"/>
<path d="M153.479 32.3209H142.875V21.5472H153.479V32.3209Z" fill="#1C2225" fill-opacity="0.2"/>
<path d="M132.274 32.321H121.67V21.5473H132.274V32.321Z" fill="#1C2225" fill-opacity="0.2"/>
<path d="M121.67 32.321H111.065V21.5473H121.67V32.321Z" fill="#1C2225" fill-opacity="0.2"/>
<path d="M111.065 32.321H100.461V21.5473H111.065V32.321Z" fill="#1C2225" fill-opacity="0.2"/>
<path d="M26.2312 32.321H15.627V21.5473H26.2312V32.321Z" fill="#1C2225" fill-opacity="0.2"/>
<path d="M15.6267 32.321H5.02246V21.5473H15.6267V32.321Z" fill="#1C2225" fill-opacity="0.2"/>
<path d="M5.02225 32.321H-5.58203V21.5473H5.02225V32.321Z" fill="#1C2225" fill-opacity="0.2"/>
<path d="M270.127 21.5474H259.522V10.7737H270.127V21.5474Z" fill="#1C2225" fill-opacity="0.2"/>
<path d="M259.523 21.5474H248.919V10.7737H259.523V21.5474Z" fill="#1C2225" fill-opacity="0.2"/>
<path d="M248.919 21.5474H238.314V10.7737H248.919V21.5474Z" fill="#1C2225" fill-opacity="0.2"/>
<path d="M174.688 21.5474H164.084V10.7737H174.688V21.5474Z" fill="#1C2225" fill-opacity="0.2"/>
<path d="M164.085 21.5474H153.48V10.7737H164.085V21.5474Z" fill="#1C2225" fill-opacity="0.2"/>
<path d="M121.67 21.5473H111.065V10.7736H121.67V21.5473Z" fill="#1C2225" fill-opacity="0.2"/>
<path d="M111.065 21.5473H100.461V10.7736H111.065V21.5473Z" fill="#1C2225" fill-opacity="0.2"/>
<path d="M36.8348 21.5473H26.2305V10.7736H36.8348V21.5473Z" fill="#1C2225" fill-opacity="0.2"/>
<path d="M26.2312 21.5473H15.627V10.7736H26.2312V21.5473Z" fill="#1C2225" fill-opacity="0.2"/>
<path d="M15.6267 21.5473H5.02246V10.7736H15.6267V21.5473Z" fill="#1C2225" fill-opacity="0.2"/>
<path d="M259.523 10.7736H248.919V-6.77109e-05H259.523V10.7736Z" fill="#1C2225" fill-opacity="0.2"/>
<path d="M248.919 10.7736H238.314V-6.77109e-05H248.919V10.7736Z" fill="#1C2225" fill-opacity="0.2"/>
<path d="M238.313 10.7736H227.709V-6.77109e-05H238.313V10.7736Z" fill="#1C2225" fill-opacity="0.2"/>
<path d="M174.688 10.7736H164.084V-6.77109e-05H174.688V10.7736Z" fill="#1C2225" fill-opacity="0.2"/>
<path d="M111.065 10.7736H100.461V-6.77109e-05H111.065V10.7736Z" fill="#1C2225" fill-opacity="0.2"/>
<path d="M47.4392 10.7736H36.835V-6.77109e-05H47.4392V10.7736Z" fill="#1C2225" fill-opacity="0.2"/>
<path d="M36.8348 10.7736H26.2305V-6.77109e-05H36.8348V10.7736Z" fill="#1C2225" fill-opacity="0.2"/>
<path d="M26.2312 10.7736H15.627V-6.77109e-05H26.2312V10.7736Z" fill="#1C2225" fill-opacity="0.2"/>
</svg>
