<svg width="380" height="364" viewBox="0 0 380 364" fill="none" xmlns="http://www.w3.org/2000/svg">
<g clip-path="url(#clip0_40_3657)">
<path d="M369.281 379.862H352.283V362.595H369.281V379.862Z" fill="#1C2225" fill-opacity="0.2"/>
<path d="M216.298 379.862H199.3V362.595H216.298V379.862Z" fill="#1C2225" fill-opacity="0.2"/>
<path d="M182.307 379.862H165.309V362.595H182.307V379.862Z" fill="#1C2225" fill-opacity="0.2"/>
<path d="M29.3242 379.862H12.3262V362.595H29.3242V379.862Z" fill="#1C2225" fill-opacity="0.2"/>
<path d="M369.281 362.595H352.283V345.329H369.281V362.595Z" fill="#1C2225" fill-opacity="0.2"/>
<path d="M352.282 362.595H335.284V345.329H352.282V362.595Z" fill="#1C2225" fill-opacity="0.2"/>
<path d="M233.297 362.595H216.299V345.329H233.297V362.595Z" fill="#1C2225" fill-opacity="0.2"/>
<path d="M216.298 362.595H199.3V345.329H216.298V362.595Z" fill="#1C2225" fill-opacity="0.2"/>
<path d="M182.307 362.595H165.309V345.329H182.307V362.595Z" fill="#1C2225" fill-opacity="0.2"/>
<path d="M165.309 362.595H148.311V345.329H165.309V362.595Z" fill="#1C2225" fill-opacity="0.2"/>
<path d="M46.3223 362.595H29.3242V345.329H46.3223V362.595Z" fill="#1C2225" fill-opacity="0.2"/>
<path d="M29.3242 362.595H12.3262V345.329H29.3242V362.595Z" fill="#1C2225" fill-opacity="0.2"/>
<path d="M369.281 345.329H352.283V328.062H369.281V345.329Z" fill="#1C2225" fill-opacity="0.2"/>
<path d="M352.282 345.329H335.284V328.062H352.282V345.329Z" fill="#1C2225" fill-opacity="0.2"/>
<path d="M335.284 345.329H318.286V328.062H335.284V345.329Z" fill="#1C2225" fill-opacity="0.2"/>
<path d="M250.295 345.329H233.297V328.062H250.295V345.329Z" fill="#1C2225" fill-opacity="0.2"/>
<path d="M233.297 345.329H216.299V328.062H233.297V345.329Z" fill="#1C2225" fill-opacity="0.2"/>
<path d="M165.309 345.329H148.311V328.062H165.309V345.329Z" fill="#1C2225" fill-opacity="0.2"/>
<path d="M148.311 345.329H131.312V328.062H148.311V345.329Z" fill="#1C2225" fill-opacity="0.2"/>
<path d="M63.3203 345.329H46.3223V328.062H63.3203V345.329Z" fill="#1C2225" fill-opacity="0.2"/>
<path d="M46.3223 345.329H29.3242V328.062H46.3223V345.329Z" fill="#1C2225" fill-opacity="0.2"/>
<path d="M29.3242 345.329H12.3262V328.062H29.3242V345.329Z" fill="#1C2225" fill-opacity="0.2"/>
<path d="M352.282 328.062H335.284V310.796H352.282V328.062Z" fill="#1C2225" fill-opacity="0.2"/>
<path d="M335.284 328.062H318.286V310.796H335.284V328.062Z" fill="#1C2225" fill-opacity="0.2"/>
<path d="M267.293 328.062H250.295V310.796H267.293V328.062Z" fill="#1C2225" fill-opacity="0.2"/>
<path d="M250.295 328.062H233.297V310.796H250.295V328.062Z" fill="#1C2225" fill-opacity="0.2"/>
<path d="M148.311 328.062H131.312V310.796H148.311V328.062Z" fill="#1C2225" fill-opacity="0.2"/>
<path d="M131.312 328.062H114.314V310.796H131.312V328.062Z" fill="#1C2225" fill-opacity="0.2"/>
<path d="M63.3203 328.062H46.3223V310.796H63.3203V328.062Z" fill="#1C2225" fill-opacity="0.2"/>
<path d="M46.3223 328.062H29.3242V310.796H46.3223V328.062Z" fill="#1C2225" fill-opacity="0.2"/>
<path d="M386.279 310.796H369.281V293.53H386.279V310.796Z" fill="#1C2225" fill-opacity="0.2"/>
<path d="M335.284 310.796H318.286V293.53H335.284V310.796Z" fill="#1C2225" fill-opacity="0.2"/>
<path d="M284.291 310.796H267.293V293.53H284.291V310.796Z" fill="#1C2225" fill-opacity="0.2"/>
<path d="M267.293 310.796H250.295V293.53H267.293V310.796Z" fill="#1C2225" fill-opacity="0.2"/>
<path d="M131.312 310.796H114.314V293.53H131.312V310.796Z" fill="#1C2225" fill-opacity="0.2"/>
<path d="M114.314 310.796H97.3164V293.53H114.314V310.796Z" fill="#1C2225" fill-opacity="0.2"/>
<path d="M63.3203 310.796H46.3223V293.53H63.3203V310.796Z" fill="#1C2225" fill-opacity="0.2"/>
<path d="M12.3262 310.796H-4.67188V293.53H12.3262V310.796Z" fill="#1C2225" fill-opacity="0.2"/>
<path d="M386.279 293.53H369.281V276.263H386.279V293.53Z" fill="#1C2225" fill-opacity="0.2"/>
<path d="M369.281 293.53H352.283V276.263H369.281V293.53Z" fill="#1C2225" fill-opacity="0.2"/>
<path d="M301.289 293.53H284.291V276.263H301.289V293.53Z" fill="#1C2225" fill-opacity="0.2"/>
<path d="M284.291 293.53H267.293V276.263H284.291V293.53Z" fill="#1C2225" fill-opacity="0.2"/>
<path d="M114.314 293.53H97.3164V276.263H114.314V293.53Z" fill="#1C2225" fill-opacity="0.2"/>
<path d="M97.3164 293.53H80.3184V276.263H97.3164V293.53Z" fill="#1C2225" fill-opacity="0.2"/>
<path d="M29.3242 293.53H12.3262V276.263H29.3242V293.53Z" fill="#1C2225" fill-opacity="0.2"/>
<path d="M12.3262 293.53H-4.67188V276.263H12.3262V293.53Z" fill="#1C2225" fill-opacity="0.2"/>
<path d="M386.279 276.263H369.281V258.997H386.279V276.263Z" fill="#1C2225" fill-opacity="0.2"/>
<path d="M369.281 276.263H352.283V258.997H369.281V276.263Z" fill="#1C2225" fill-opacity="0.2"/>
<path d="M352.282 276.263H335.284V258.997H352.282V276.263Z" fill="#1C2225" fill-opacity="0.2"/>
<path d="M318.287 276.263H301.289V258.997H318.287V276.263Z" fill="#1C2225" fill-opacity="0.2"/>
<path d="M301.289 276.263H284.291V258.997H301.289V276.263Z" fill="#1C2225" fill-opacity="0.2"/>
<path d="M199.305 276.263H182.307V258.997H199.305V276.263Z" fill="#1C2225" fill-opacity="0.2"/>
<path d="M97.3164 276.263H80.3184V258.997H97.3164V276.263Z" fill="#1C2225" fill-opacity="0.2"/>
<path d="M80.3184 276.263H63.3203V258.997H80.3184V276.263Z" fill="#1C2225" fill-opacity="0.2"/>
<path d="M46.3223 276.263H29.3242V258.997H46.3223V276.263Z" fill="#1C2225" fill-opacity="0.2"/>
<path d="M29.3242 276.263H12.3262V258.997H29.3242V276.263Z" fill="#1C2225" fill-opacity="0.2"/>
<path d="M12.3262 276.263H-4.67188V258.997H12.3262V276.263Z" fill="#1C2225" fill-opacity="0.2"/>
<path d="M216.298 258.997H199.3V241.73H216.298V258.997Z" fill="#1C2225" fill-opacity="0.2"/>
<path d="M199.305 258.997H182.307V241.73H199.305V258.997Z" fill="#1C2225" fill-opacity="0.2"/>
<path d="M182.307 258.997H165.309V241.73H182.307V258.997Z" fill="#1C2225" fill-opacity="0.2"/>
<path d="M386.279 241.73H369.281V224.464H386.279V241.73Z" fill="#1C2225" fill-opacity="0.2"/>
<path d="M369.281 241.73H352.283V224.464H369.281V241.73Z" fill="#1C2225" fill-opacity="0.2"/>
<path d="M352.282 241.73H335.284V224.464H352.282V241.73Z" fill="#1C2225" fill-opacity="0.2"/>
<path d="M318.287 241.73H301.289V224.464H318.287V241.73Z" fill="#1C2225" fill-opacity="0.2"/>
<path d="M301.289 241.73H284.291V224.464H301.289V241.73Z" fill="#1C2225" fill-opacity="0.2"/>
<path d="M199.305 241.73H182.307V224.464H199.305V241.73Z" fill="#1C2225" fill-opacity="0.2"/>
<path d="M97.3164 241.73H80.3184V224.464H97.3164V241.73Z" fill="#1C2225" fill-opacity="0.2"/>
<path d="M80.3184 241.73H63.3203V224.464H80.3184V241.73Z" fill="#1C2225" fill-opacity="0.2"/>
<path d="M46.3223 241.73H29.3242V224.464H46.3223V241.73Z" fill="#1C2225" fill-opacity="0.2"/>
<path d="M29.3242 241.73H12.3262V224.464H29.3242V241.73Z" fill="#1C2225" fill-opacity="0.2"/>
<path d="M12.3262 241.73H-4.67188V224.464H12.3262V241.73Z" fill="#1C2225" fill-opacity="0.2"/>
<path d="M386.279 224.464H369.281V207.197H386.279V224.464Z" fill="#1C2225" fill-opacity="0.2"/>
<path d="M369.281 224.464H352.283V207.197H369.281V224.464Z" fill="#1C2225" fill-opacity="0.2"/>
<path d="M301.289 224.464H284.291V207.197H301.289V224.464Z" fill="#1C2225" fill-opacity="0.2"/>
<path d="M284.291 224.464H267.293V207.197H284.291V224.464Z" fill="#1C2225" fill-opacity="0.2"/>
<path d="M114.314 224.464H97.3164V207.197H114.314V224.464Z" fill="#1C2225" fill-opacity="0.2"/>
<path d="M97.3164 224.464H80.3184V207.197H97.3164V224.464Z" fill="#1C2225" fill-opacity="0.2"/>
<path d="M29.3242 224.464H12.3262V207.197H29.3242V224.464Z" fill="#1C2225" fill-opacity="0.2"/>
<path d="M12.3262 224.464H-4.67188V207.197H12.3262V224.464Z" fill="#1C2225" fill-opacity="0.2"/>
<path d="M386.279 207.197H369.281V189.931H386.279V207.197Z" fill="#1C2225" fill-opacity="0.2"/>
<path d="M335.284 207.197H318.286V189.931H335.284V207.197Z" fill="#1C2225" fill-opacity="0.2"/>
<path d="M284.291 207.197H267.293V189.931H284.291V207.197Z" fill="#1C2225" fill-opacity="0.2"/>
<path d="M267.293 207.197H250.295V189.931H267.293V207.197Z" fill="#1C2225" fill-opacity="0.2"/>
<path d="M131.312 207.197H114.314V189.931H131.312V207.197Z" fill="#1C2225" fill-opacity="0.2"/>
<path d="M114.314 207.197H97.3164V189.931H114.314V207.197Z" fill="#1C2225" fill-opacity="0.2"/>
<path d="M63.3203 207.197H46.3223V189.931H63.3203V207.197Z" fill="#1C2225" fill-opacity="0.2"/>
<path d="M12.3262 207.197H-4.67188V189.931H12.3262V207.197Z" fill="#1C2225" fill-opacity="0.2"/>
<path d="M352.282 189.931H335.284V172.664H352.282V189.931Z" fill="#1C2225" fill-opacity="0.2"/>
<path d="M335.284 189.931H318.286V172.664H335.284V189.931Z" fill="#1C2225" fill-opacity="0.2"/>
<path d="M267.293 189.931H250.295V172.664H267.293V189.931Z" fill="#1C2225" fill-opacity="0.2"/>
<path d="M250.295 189.931H233.297V172.664H250.295V189.931Z" fill="#1C2225" fill-opacity="0.2"/>
<path d="M148.311 189.931H131.312V172.664H148.311V189.931Z" fill="#1C2225" fill-opacity="0.2"/>
<path d="M131.312 189.931H114.314V172.664H131.312V189.931Z" fill="#1C2225" fill-opacity="0.2"/>
<path d="M63.3203 189.931H46.3223V172.664H63.3203V189.931Z" fill="#1C2225" fill-opacity="0.2"/>
<path d="M46.3223 189.931H29.3242V172.664H46.3223V189.931Z" fill="#1C2225" fill-opacity="0.2"/>
<path d="M369.281 172.664H352.283V155.398H369.281V172.664Z" fill="#1C2225" fill-opacity="0.2"/>
<path d="M352.282 172.664H335.284V155.398H352.282V172.664Z" fill="#1C2225" fill-opacity="0.2"/>
<path d="M335.284 172.664H318.286V155.398H335.284V172.664Z" fill="#1C2225" fill-opacity="0.2"/>
<path d="M250.295 172.664H233.297V155.398H250.295V172.664Z" fill="#1C2225" fill-opacity="0.2"/>
<path d="M233.297 172.664H216.299V155.398H233.297V172.664Z" fill="#1C2225" fill-opacity="0.2"/>
<path d="M165.309 172.664H148.311V155.398H165.309V172.664Z" fill="#1C2225" fill-opacity="0.2"/>
<path d="M148.311 172.664H131.312V155.398H148.311V172.664Z" fill="#1C2225" fill-opacity="0.2"/>
<path d="M63.3203 172.664H46.3223V155.398H63.3203V172.664Z" fill="#1C2225" fill-opacity="0.2"/>
<path d="M46.3223 172.664H29.3242V155.398H46.3223V172.664Z" fill="#1C2225" fill-opacity="0.2"/>
<path d="M29.3242 172.664H12.3262V155.398H29.3242V172.664Z" fill="#1C2225" fill-opacity="0.2"/>
<path d="M369.281 155.398H352.283V138.132H369.281V155.398Z" fill="#1C2225" fill-opacity="0.2"/>
<path d="M352.282 155.398H335.284V138.132H352.282V155.398Z" fill="#1C2225" fill-opacity="0.2"/>
<path d="M233.297 155.398H216.299V138.132H233.297V155.398Z" fill="#1C2225" fill-opacity="0.2"/>
<path d="M216.298 155.398H199.3V138.132H216.298V155.398Z" fill="#1C2225" fill-opacity="0.2"/>
<path d="M182.307 155.398H165.309V138.132H182.307V155.398Z" fill="#1C2225" fill-opacity="0.2"/>
<path d="M165.309 155.398H148.311V138.132H165.309V155.398Z" fill="#1C2225" fill-opacity="0.2"/>
<path d="M46.3223 155.398H29.3242V138.132H46.3223V155.398Z" fill="#1C2225" fill-opacity="0.2"/>
<path d="M29.3242 155.398H12.3262V138.132H29.3242V155.398Z" fill="#1C2225" fill-opacity="0.2"/>
<path d="M369.281 138.132H352.283V120.865H369.281V138.132Z" fill="#1C2225" fill-opacity="0.2"/>
<path d="M216.298 138.132H199.3V120.865H216.298V138.132Z" fill="#1C2225" fill-opacity="0.2"/>
<path d="M182.307 138.132H165.309V120.865H182.307V138.132Z" fill="#1C2225" fill-opacity="0.2"/>
<path d="M29.3242 138.132H12.3262V120.865H29.3242V138.132Z" fill="#1C2225" fill-opacity="0.2"/>
<path d="M284.291 103.599H267.293V86.3322H284.291V103.599Z" fill="#1C2225" fill-opacity="0.2"/>
<path d="M267.293 103.599H250.295V86.3322H267.293V103.599Z" fill="#1C2225" fill-opacity="0.2"/>
<path d="M250.295 103.599H233.297V86.3322H250.295V103.599Z" fill="#1C2225" fill-opacity="0.2"/>
<path d="M148.311 103.599H131.312V86.3322H148.311V103.599Z" fill="#1C2225" fill-opacity="0.2"/>
<path d="M131.312 103.599H114.314V86.3322H131.312V103.599Z" fill="#1C2225" fill-opacity="0.2"/>
<path d="M114.314 103.599H97.3164V86.3322H114.314V103.599Z" fill="#1C2225" fill-opacity="0.2"/>
<path d="M301.289 86.3322H284.291V69.0657H301.289V86.3322Z" fill="#1C2225" fill-opacity="0.2"/>
<path d="M284.291 86.3322H267.293V69.0657H284.291V86.3322Z" fill="#1C2225" fill-opacity="0.2"/>
<path d="M267.293 86.3322H250.295V69.0657H267.293V86.3322Z" fill="#1C2225" fill-opacity="0.2"/>
<path d="M216.298 86.3322H199.3V69.0657H216.298V86.3322Z" fill="#1C2225" fill-opacity="0.2"/>
<path d="M182.307 86.3322H165.309V69.0657H182.307V86.3322Z" fill="#1C2225" fill-opacity="0.2"/>
<path d="M131.312 86.3322H114.314V69.0657H131.312V86.3322Z" fill="#1C2225" fill-opacity="0.2"/>
<path d="M114.314 86.3322H97.3164V69.0657H114.314V86.3322Z" fill="#1C2225" fill-opacity="0.2"/>
<path d="M97.3164 86.3322H80.3184V69.0657H97.3164V86.3322Z" fill="#1C2225" fill-opacity="0.2"/>
<path d="M318.287 69.0657H301.289V51.7992H318.287V69.0657Z" fill="#1C2225" fill-opacity="0.2"/>
<path d="M301.289 69.0657H284.291V51.7992H301.289V69.0657Z" fill="#1C2225" fill-opacity="0.2"/>
<path d="M284.291 69.0657H267.293V51.7992H284.291V69.0657Z" fill="#1C2225" fill-opacity="0.2"/>
<path d="M233.297 69.0657H216.299V51.7992H233.297V69.0657Z" fill="#1C2225" fill-opacity="0.2"/>
<path d="M216.298 69.0657H199.3V51.7992H216.298V69.0657Z" fill="#1C2225" fill-opacity="0.2"/>
<path d="M182.307 69.0657H165.309V51.7992H182.307V69.0657Z" fill="#1C2225" fill-opacity="0.2"/>
<path d="M165.309 69.0657H148.311V51.7992H165.309V69.0657Z" fill="#1C2225" fill-opacity="0.2"/>
<path d="M114.314 69.0657H97.3164V51.7992H114.314V69.0657Z" fill="#1C2225" fill-opacity="0.2"/>
<path d="M97.3164 69.0657H80.3184V51.7992H97.3164V69.0657Z" fill="#1C2225" fill-opacity="0.2"/>
<path d="M80.3184 69.0657H63.3203V51.7992H80.3184V69.0657Z" fill="#1C2225" fill-opacity="0.2"/>
<path d="M386.279 51.7992H369.281V34.5328H386.279V51.7992Z" fill="#1C2225" fill-opacity="0.2"/>
<path d="M250.295 51.7992H233.297V34.5328H250.295V51.7992Z" fill="#1C2225" fill-opacity="0.2"/>
<path d="M233.297 51.7992H216.299V34.5328H233.297V51.7992Z" fill="#1C2225" fill-opacity="0.2"/>
<path d="M216.298 51.7992H199.3V34.5328H216.298V51.7992Z" fill="#1C2225" fill-opacity="0.2"/>
<path d="M182.307 51.7992H165.309V34.5328H182.307V51.7992Z" fill="#1C2225" fill-opacity="0.2"/>
<path d="M165.309 51.7992H148.311V34.5328H165.309V51.7992Z" fill="#1C2225" fill-opacity="0.2"/>
<path d="M148.311 51.7992H131.312V34.5328H148.311V51.7992Z" fill="#1C2225" fill-opacity="0.2"/>
<path d="M12.3262 51.7992H-4.67188V34.5328H12.3262V51.7992Z" fill="#1C2225" fill-opacity="0.2"/>
<path d="M386.279 34.5328H369.281V17.2664H386.279V34.5328Z" fill="#1C2225" fill-opacity="0.2"/>
<path d="M369.281 34.5328H352.283V17.2664H369.281V34.5328Z" fill="#1C2225" fill-opacity="0.2"/>
<path d="M250.295 34.5328H233.297V17.2664H250.295V34.5328Z" fill="#1C2225" fill-opacity="0.2"/>
<path d="M233.297 34.5328H216.299V17.2664H233.297V34.5328Z" fill="#1C2225" fill-opacity="0.2"/>
<path d="M165.309 34.5328H148.311V17.2664H165.309V34.5328Z" fill="#1C2225" fill-opacity="0.2"/>
<path d="M148.311 34.5328H131.312V17.2664H148.311V34.5328Z" fill="#1C2225" fill-opacity="0.2"/>
<path d="M29.3242 34.5328H12.3262V17.2664H29.3242V34.5328Z" fill="#1C2225" fill-opacity="0.2"/>
<path d="M12.3262 34.5328H-4.67188V17.2664H12.3262V34.5328Z" fill="#1C2225" fill-opacity="0.2"/>
<path d="M386.279 17.2664H369.281V-8.39233e-05H386.279V17.2664Z" fill="#1C2225" fill-opacity="0.2"/>
<path d="M369.281 17.2664H352.283V-8.39233e-05H369.281V17.2664Z" fill="#1C2225" fill-opacity="0.2"/>
<path d="M352.282 17.2664H335.284V-8.39233e-05H352.282V17.2664Z" fill="#1C2225" fill-opacity="0.2"/>
<path d="M250.295 17.2664H233.297V-8.39233e-05H250.295V17.2664Z" fill="#1C2225" fill-opacity="0.2"/>
<path d="M148.311 17.2664H131.312V-8.39233e-05H148.311V17.2664Z" fill="#1C2225" fill-opacity="0.2"/>
<path d="M46.3223 17.2664H29.3242V-8.39233e-05H46.3223V17.2664Z" fill="#1C2225" fill-opacity="0.2"/>
<path d="M29.3242 17.2664H12.3262V-8.39233e-05H29.3242V17.2664Z" fill="#1C2225" fill-opacity="0.2"/>
<path d="M12.3262 17.2664H-4.67188V-8.39233e-05H12.3262V17.2664Z" fill="#1C2225" fill-opacity="0.2"/>
</g>
<defs>
<clipPath id="clip0_40_3657">
<rect width="545" height="484" fill="white" transform="translate(-73)"/>
</clipPath>
</defs>
</svg>
