<svg aria-hidden="true" style="position:absolute;width:0;height:0;overflow:hidden" xmlns="http://www.w3.org/2000/svg"><defs><symbol id="icon-hero-line" viewBox="0 0 45 32"><path d="M39.199 18.762a60.644 60.644 0 0 1-.476-4.927c-.031-1.468.025-2.739.167-3.812L3.182 30.639l-1.689-2.926L37.201 7.097c-1.027-.459-2.169-1.07-3.425-1.831a69.092 69.092 0 0 1-3.989-2.806l2.144-1.238c4.53 1.905 8.673 2.857 12.429 2.856l.724 1.254c-1.906 3.206-3.153 7.27-3.741 12.192l-2.144 1.238z"/></symbol><symbol id="hero-icon-star" viewBox="0 0 32 32"><path d="M15.434.333a.653.653 0 0 1 1.133 0l1.84 3.203c.19.33.621.429.935.214l3.081-2.107a.653.653 0 0 1 1.02.496l.239 3.642a.653.653 0 0 0 .754.602l3.69-.584c.504-.08.9.423.706.894l-1.386 3.36a.653.653 0 0 0 .421.876l3.555 1.036a.653.653 0 0 1 .252 1.115l-2.731 2.433a.654.654 0 0 0 0 .975l2.731 2.433a.653.653 0 0 1-.252 1.115l-3.555 1.036a.653.653 0 0 0-.421.876l1.386 3.36a.653.653 0 0 1-.706.894l-3.69-.584a.653.653 0 0 0-.754.602l-.239 3.642a.653.653 0 0 1-1.02.496l-3.081-2.107a.653.653 0 0 0-.935.214l-1.84 3.203a.653.653 0 0 1-1.133 0l-1.84-3.203a.653.653 0 0 0-.935-.214l-3.081 2.107a.652.652 0 0 1-1.02-.496l-.239-3.642a.653.653 0 0 0-.754-.602l-3.69.584a.653.653 0 0 1-.706-.894l1.386-3.36a.653.653 0 0 0-.421-.876L.579 20.036a.653.653 0 0 1-.252-1.115l2.731-2.433a.654.654 0 0 0 0-.975L.327 13.08a.653.653 0 0 1 .252-1.115l3.555-1.036a.653.653 0 0 0 .421-.876l-1.386-3.36a.653.653 0 0 1 .706-.894l3.69.584c.38.06.729-.219.754-.602l.239-3.642a.653.653 0 0 1 1.02-.496l3.081 2.107a.653.653 0 0 0 .935-.214l1.84-3.203z"/></symbol></defs></svg>